<svg width="25" height="28" viewBox="0 0 25 28" fill="none" xmlns="http://www.w3.org/2000/svg">
<path d="M13.75 25C13.4185 25 13.1005 25.1317 12.8661 25.3661C12.6317 25.6005 12.5 25.9185 12.5 26.25C12.5 26.5815 12.6317 26.8995 12.8661 27.1339C13.1005 27.3683 13.4185 27.5 13.75 27.5H23.75C24.0815 27.5 24.3995 27.3683 24.6339 27.1339C24.8683 26.8995 25 26.5815 25 26.25V1.25C25 0.918479 24.8683 0.600537 24.6339 0.366116C24.3995 0.131696 24.0815 0 23.75 0H13.75C13.4185 0 13.1005 0.131696 12.8661 0.366116C12.6317 0.600537 12.5 0.918479 12.5 1.25C12.5 1.58152 12.6317 1.89946 12.8661 2.13388C13.1005 2.3683 13.4185 2.5 13.75 2.5H22.5V25H13.75Z" fill="#E2E2E2"/>
<path d="M0 13.75C0 14.0815 0.131696 14.3994 0.366116 14.6339C0.600537 14.8683 0.918479 15 1.25 15H15.7325L12.8663 17.8662C12.7469 17.9815 12.6516 18.1195 12.5861 18.272C12.5206 18.4245 12.4861 18.5885 12.4847 18.7545C12.4832 18.9205 12.5149 19.0851 12.5777 19.2387C12.6406 19.3923 12.7334 19.5319 12.8508 19.6492C12.9681 19.7666 13.1077 19.8594 13.2613 19.9223C13.4149 19.9851 13.5795 20.0167 13.7455 20.0153C13.9115 20.0139 14.0755 19.9794 14.228 19.9139C14.3805 19.8483 14.5184 19.7531 14.6337 19.6337L19.6338 14.6337C19.8681 14.3993 19.9997 14.0814 19.9997 13.75C19.9997 13.4185 19.8681 13.1006 19.6338 12.8662L14.6337 7.86623C14.5184 7.74684 14.3805 7.65161 14.228 7.5861C14.0755 7.52059 13.9115 7.48611 13.7455 7.48467C13.5795 7.48322 13.4149 7.51485 13.2613 7.5777C13.1077 7.64055 12.9681 7.73337 12.8508 7.85074C12.7334 7.9681 12.6406 8.10767 12.5777 8.26129C12.5149 8.41491 12.4832 8.57951 12.4847 8.74548C12.4861 8.91146 12.5206 9.07548 12.5861 9.22798C12.6516 9.38049 12.7469 9.51842 12.8663 9.63373L15.7325 12.5H1.25C0.918479 12.5 0.600537 12.6317 0.366116 12.8661C0.131696 13.1005 0 13.4185 0 13.75Z" fill="#E2E2E2"/>
</svg>
