<svg width="81" height="80" viewBox="0 0 81 80" fill="none" xmlns="http://www.w3.org/2000/svg">
<path d="M40.5 7.90625C31.82 7.90625 23.655 11.244 17.52 17.3073C11.385 23.3705 8 31.4285 8 40C8 48.5715 11.38 56.6344 17.52 62.6927C23.66 68.7511 31.82 72.0938 40.5 72.0938C49.18 72.0938 57.345 68.756 63.48 62.6927C69.615 56.6295 73 48.5715 73 40C73 31.4285 69.62 23.3656 63.48 17.3073C57.34 11.2489 49.18 7.90625 40.5 7.90625ZM40.5 0.5C51.1087 0.5 61.2828 4.6616 68.7843 12.0693C76.2857 19.477 80.5 29.5239 80.5 40C80.5 50.4761 76.2857 60.523 68.7843 67.9307C61.2828 75.3384 51.1087 79.5 40.5 79.5C29.8913 79.5 19.7172 75.3384 12.2157 67.9307C4.71427 60.523 0.5 50.4761 0.5 40C0.5 29.5239 4.71427 19.477 12.2157 12.0693C19.7172 4.6616 29.8913 0.5 40.5 0.5ZM35.5 54.8125H45.5V64.6875H35.5V54.8125ZM35.5 15.3125H45.5V44.9375H35.5V15.3125Z" fill="white"/>
</svg>
